<svg xmlns="http://www.w3.org/2000/svg" viewBox="0 0 128 128">
  <defs>
    <linearGradient id="bg" x1="16" y1="8" x2="112" y2="120" gradientUnits="userSpaceOnUse">
      <stop offset="0" stop-color="#62a0ea"/>
      <stop offset="1" stop-color="#1c71d8"/>
    </linearGradient>
    <linearGradient id="screen" x1="28" y1="34" x2="100" y2="78" gradientUnits="userSpaceOnUse">
      <stop offset="0" stop-color="#99c1f1"/>
      <stop offset="1" stop-color="#3584e4"/>
    </linearGradient>
  </defs>
  <rect width="128" height="128" rx="24" fill="url(#bg)"/>
  <rect x="18" y="24" width="92" height="58" rx="8" fill="#ffffff" opacity="0.96"/>
  <rect x="26" y="32" width="76" height="42" rx="4" fill="url(#screen)"/>
  <rect x="34" y="40" width="24" height="4" rx="2" fill="#ffffff" opacity="0.85"/>
  <rect x="34" y="48" width="40" height="3" rx="1.5" fill="#ffffff" opacity="0.55"/>
  <rect x="34" y="55" width="32" height="3" rx="1.5" fill="#ffffff" opacity="0.45"/>
  <circle cx="86" cy="53" r="8" fill="#ffffff" opacity="0.9"/>
  <path d="M83 53h6M86 50v6" stroke="#3584e4" stroke-width="2.2" stroke-linecap="round"/>
  <rect x="52" y="86" width="24" height="7" rx="2" fill="#ffffff" opacity="0.92"/>
  <rect x="44" y="93" width="40" height="5" rx="2.5" fill="#ffffff" opacity="0.75"/>
  <rect x="88" y="78" width="18" height="12" rx="3" fill="#ffffff" opacity="0.95"/>
  <path d="M94 84h6v4h-6z" fill="#3584e4"/>
  <circle cx="22" cy="104" r="10" fill="#ffffff" opacity="0.95"/>
  <circle cx="22" cy="104" r="4.5" fill="none" stroke="#3584e4" stroke-width="2.5"/>
  <circle cx="22" cy="104" r="1.8" fill="#3584e4"/>
</svg>
